HIERARCHY
ROOT Hips
{
  OFFSET -1.94299 89.2169 1.81292
  CHANNELS 6 Xposition Yposition Zposition Zrotation Xrotation Yrotation
  JOINT Spine
  {
    OFFSET 0 10.1816 0.1315
    CHANNELS 6 Xposition Yposition Zposition Zrotation Xrotation Yrotation
    JOINT Spine1
    {
      OFFSET 0 10.0835 -1.0008
      CHANNELS 6 Xposition Yposition Zposition Zrotation Xrotation Yrotation
      JOINT Spine2
      {
        OFFSET 0 9.1 -1.3734
        CHANNELS 6 Xposition Yposition Zposition Zrotation Xrotation Yrotation
        JOINT Neck
        {
          OFFSET 0 16.6717 -2.5162
          CHANNELS 6 Xposition Yposition Zposition Zrotation Xrotation Yrotation
          JOINT Head
          {
            OFFSET 0 9.6179 1.685
            CHANNELS 6 Xposition Yposition Zposition Zrotation Xrotation Yrotation
            JOINT HeadTop_End
            {
              OFFSET 0 17.8152 2.585
              CHANNELS 6 Xposition Yposition Zposition Zrotation Xrotation Yrotation
              End Site
              {
                OFFSET 0 0 0
              }
            }
            JOINT LeftEye
            {
              OFFSET 3.0676 6.4095 9.2836
              CHANNELS 6 Xposition Yposition Zposition Zrotation Xrotation Yrotation
              End Site
              {
                OFFSET 0 0 0
              }
            }
            JOINT RightEye
            {
              OFFSET -3.0676 6.4095 9.2835
              CHANNELS 6 Xposition Yposition Zposition Zrotation Xrotation Yrotation
              End Site
              {
                OFFSET 0 0 0
              }
            }
          }
        }
        JOINT LeftShoulder
        {
          OFFSET 4.5704 10.946 -2.628
          CHANNELS 6 Xposition Yposition Zposition Zrotation Xrotation Yrotation
          JOINT LeftArm
          {
            OFFSET 10.5924 -0.5246 -2.2321
            CHANNELS 6 Xposition Yposition Zposition Zrotation Xrotation Yrotation
            JOINT LeftForeArm
            {
              OFFSET 27.8415 -0.0001 0
              CHANNELS 6 Xposition Yposition Zposition Zrotation Xrotation Yrotation
              JOINT LeftHand
              {
                OFFSET 28.3288 0 0
                CHANNELS 6 Xposition Yposition Zposition Zrotation Xrotation Yrotation
                JOINT LeftHandThumb1
                {
                  OFFSET 2.4661 -1.575 2.6824
                  CHANNELS 6 Xposition Yposition Zposition Zrotation Xrotation Yrotation
                  JOINT LeftHandThumb2
                  {
                    OFFSET 3.2298 -1.8647 1.8647
                    CHANNELS 6 Xposition Yposition Zposition Zrotation Xrotation Yrotation
                    JOINT LeftHandThumb3
                    {
                      OFFSET 2.6526 -1.5315 1.5315
                      CHANNELS 6 Xposition Yposition Zposition Zrotation Xrotation Yrotation
                      End Site
                      {
                        OFFSET 1.9546 -1.1285 1.1285
                      }
                    }
                  }
                }
                JOINT LeftHandIndex1
                {
                  OFFSET 9.1093 -0.5171 2.2601
                  CHANNELS 6 Xposition Yposition Zposition Zrotation Xrotation Yrotation
                  JOINT LeftHandIndex2
                  {
                    OFFSET 3.6764 0 0
                    CHANNELS 6 Xposition Yposition Zposition Zrotation Xrotation Yrotation
                    JOINT LeftHandIndex3
                    {
                      OFFSET 2.8831 0 0
                      CHANNELS 6 Xposition Yposition Zposition Zrotation Xrotation Yrotation
                      End Site
                      {
                        OFFSET 2.3927 0 0
                      }
                    }
                  }
                }
                JOINT LeftHandMiddle1
                {
                  OFFSET 9.5334 0 0
                  CHANNELS 6 Xposition Yposition Zposition Zrotation Xrotation Yrotation
                  JOINT LeftHandMiddle2
                  {
                    OFFSET 3.6982 0 0
                    CHANNELS 6 Xposition Yposition Zposition Zrotation Xrotation Yrotation
                    JOINT LeftHandMiddle3
                    {
                      OFFSET 2.9509 0 0
                      CHANNELS 6 Xposition Yposition Zposition Zrotation Xrotation Yrotation
                      End Site
                      {
                        OFFSET 2.8339 0 0
                      }
                    }
                  }
                }
                JOINT LeftHandRing1
                {
                  OFFSET 9.1045 -0.0439 -1.8651
                  CHANNELS 6 Xposition Yposition Zposition Zrotation Xrotation Yrotation
                  JOINT LeftHandRing2
                  {
                    OFFSET 3.154 0 0
                    CHANNELS 6 Xposition Yposition Zposition Zrotation Xrotation Yrotation
                    JOINT LeftHandRing3
                    {
                      OFFSET 2.9377 0 0
                      CHANNELS 6 Xposition Yposition Zposition Zrotation Xrotation Yrotation
                      End Site
                      {
                        OFFSET 2.6475 0 0
                      }
                    }
                  }
                }
                JOINT LeftHandPinky1
                {
                  OFFSET 8.0778 -0.4887 -3.8061
                  CHANNELS 6 Xposition Yposition Zposition Zrotation Xrotation Yrotation
                  JOINT LeftHandPinky2
                  {
                    OFFSET 3.6 0 0
                    CHANNELS 6 Xposition Yposition Zposition Zrotation Xrotation Yrotation
                    JOINT LeftHandPinky3
                    {
                      OFFSET 2.1142 0 0
                      CHANNELS 6 Xposition Yposition Zposition Zrotation Xrotation Yrotation
                      End Site
                      {
                        OFFSET 1.9757 0 0
                      }
                    }
                  }
                }
              }
            }
          }
        }
        JOINT RightShoulder
        {
          OFFSET -4.57 10.9462 -2.628
          CHANNELS 6 Xposition Yposition Zposition Zrotation Xrotation Yrotation
          JOINT RightArm
          {
            OFFSET -10.5928 -0.5248 -2.2321
            CHANNELS 6 Xposition Yposition Zposition Zrotation Xrotation Yrotation
            JOINT RightForeArm
            {
              OFFSET -27.8415 0 0
              CHANNELS 6 Xposition Yposition Zposition Zrotation Xrotation Yrotation
              JOINT RightHand
              {
                OFFSET -28.3288 0 0.0001
                CHANNELS 6 Xposition Yposition Zposition Zrotation Xrotation Yrotation
                JOINT RightHandPinky1
                {
                  OFFSET -8.0767 -0.4885 -3.806
                  CHANNELS 6 Xposition Yposition Zposition Zrotation Xrotation Yrotation
                  JOINT RightHandPinky2
                  {
                    OFFSET -3.6 0 0.0001
                    CHANNELS 6 Xposition Yposition Zposition Zrotation Xrotation Yrotation
                    JOINT RightHandPinky3
                    {
                      OFFSET -2.1142 0 0
                      CHANNELS 6 Xposition Yposition Zposition Zrotation Xrotation Yrotation
                      End Site
                      {
                        OFFSET -1.9757 0 0
                      }
                    }
                  }
                }
                JOINT RightHandRing1
                {
                  OFFSET -9.1036 -0.0439 -1.8651
                  CHANNELS 6 Xposition Yposition Zposition Zrotation Xrotation Yrotation
                  JOINT RightHandRing2
                  {
                    OFFSET -3.154 0 0
                    CHANNELS 6 Xposition Yposition Zposition Zrotation Xrotation Yrotation
                    JOINT RightHandRing3
                    {
                      OFFSET -2.9377 0 0
                      CHANNELS 6 Xposition Yposition Zposition Zrotation Xrotation Yrotation
                      End Site
                      {
                        OFFSET -2.6475 0 0
                      }
                    }
                  }
                }
                JOINT RightHandMiddle1
                {
                  OFFSET -9.5325 0 0
                  CHANNELS 6 Xposition Yposition Zposition Zrotation Xrotation Yrotation
                  JOINT RightHandMiddle2
                  {
                    OFFSET -3.6982 0 0
                    CHANNELS 6 Xposition Yposition Zposition Zrotation Xrotation Yrotation
                    JOINT RightHandMiddle3
                    {
                      OFFSET -2.9509 0 0
                      CHANNELS 6 Xposition Yposition Zposition Zrotation Xrotation Yrotation
                      End Site
                      {
                        OFFSET -2.8339 0 0.0001
                      }
                    }
                  }
                }
                JOINT RightHandIndex1
                {
                  OFFSET -9.1083 -0.5168 2.2601
                  CHANNELS 6 Xposition Yposition Zposition Zrotation Xrotation Yrotation
                  JOINT RightHandIndex2
                  {
                    OFFSET -3.6764 0 0
                    CHANNELS 6 Xposition Yposition Zposition Zrotation Xrotation Yrotation
                    JOINT RightHandIndex3
                    {
                      OFFSET -2.8831 0 0
                      CHANNELS 6 Xposition Yposition Zposition Zrotation Xrotation Yrotation
                      End Site
                      {
                        OFFSET -2.3927 0 0
                      }
                    }
                  }
                }
                JOINT RightHandThumb1
                {
                  OFFSET -2.4648 -1.5727 2.6826
                  CHANNELS 6 Xposition Yposition Zposition Zrotation Xrotation Yrotation
                  JOINT RightHandThumb2
                  {
                    OFFSET -3.2298 -1.8647 1.8647
                    CHANNELS 6 Xposition Yposition Zposition Zrotation Xrotation Yrotation
                    JOINT RightHandThumb3
                    {
                      OFFSET -2.6526 -1.5314 1.5314
                      CHANNELS 6 Xposition Yposition Zposition Zrotation Xrotation Yrotation
                      End Site
                      {
                        OFFSET -1.9546 -1.1285 1.1285
                      }
                    }
                  }
                }
              }
            }
          }
        }
      }
    }
  }
  JOINT LeftUpLeg
  {
    OFFSET 8.2078 -6.7517 -1.5996
    CHANNELS 6 Xposition Yposition Zposition Zrotation Xrotation Yrotation
    JOINT LeftLeg
    {
      OFFSET 0 -44.3705 0.2846
      CHANNELS 6 Xposition Yposition Zposition Zrotation Xrotation Yrotation
      JOINT LeftFoot
      {
        OFFSET 0 -44.4279 -2.9822
        CHANNELS 6 Xposition Yposition Zposition Zrotation Xrotation Yrotation
        JOINT LeftToeBase
        {
          OFFSET 0 -8.7287 10.7106
          CHANNELS 6 Xposition Yposition Zposition Zrotation Xrotation Yrotation
          End Site
          {
            OFFSET 0 -0.0007 9.2781
          }
        }
      }
    }
  }
  JOINT RightUpLeg
  {
    OFFSET -8.2078 -6.7517 -1.5996
    CHANNELS 6 Xposition Yposition Zposition Zrotation Xrotation Yrotation
    JOINT RightLeg
    {
      OFFSET 0 -44.3705 0.2862
      CHANNELS 6 Xposition Yposition Zposition Zrotation Xrotation Yrotation
      JOINT RightFoot
      {
        OFFSET 0 -44.4277 -2.9838
        CHANNELS 6 Xposition Yposition Zposition Zrotation Xrotation Yrotation
        JOINT RightToeBase
        {
          OFFSET 0 -8.7287 10.7106
          CHANNELS 6 Xposition Yposition Zposition Zrotation Xrotation Yrotation
          End Site
          {
            OFFSET 0 -0.0007 9.2781
          }
        }
      }
    }
  }
}
MOTION
Frames:	4
Frame Time:	0.0333333
-1.00325 91.7009 3.03257 -7.2706 -14.7981 -26.6026 4.44089e-016 10.1816 0.1315 8.62026 14.6279 -3.51485 1.77636e-015 10.0835 -1.0008 4.65683 8.56822 -1.62575 0 9.1 -1.3734 4.62433 8.60149 -1.50555 2.13163e-014 16.6717 -2.5162 -2.67895 6.72229 4.45131 7.10543e-015 9.6179 1.685 -0.0920499 -28.3298 21.7617 0 17.8152 2.585 1.88845e-015 0 -0 3.0676 6.4095 9.2836 1.88845e-015 0 -0 -3.0676 6.4095 9.2835 1.88845e-015 0 -0 4.5704 10.946 -2.628 -5.53631 5.3351 -24.6232 10.5924 -0.5246 -2.2321 -71.4106 -60.1374 -1.25831 27.8415 -0.0001 -3.55271e-015 -0.000199115 -4.72821e-006 -108.051 28.3288 0 1.42109e-014 2.41168 -77.2034 0.669566 2.4661 -1.575 2.6824 -12.4311 -5.83836 -0.67495 3.2298 -1.8647 1.8647 0.739164 4.04323 7.8974 2.6526 -1.5315 1.5315 -1.131 5.78946 18.8961 9.1093 -0.5171 2.2601 -49.8406 -2.44309 9.35981 3.6764 7.10543e-015 1.42109e-014 -57.1057 -3.15457 5.79374 2.8831 0 0 -8.63287 -0.0780284 1.034 9.5334 -1.42109e-014 2.84217e-014 -60.1723 -3.46987 6.6773 3.6982 0 0 -47.2639 -2.21779 5.06594 2.9509 0 0 -7.12337 -0.0531627 0.854221 9.1045 -0.0439 -1.8651 -47.3754 -2.22044 7.71912 3.154 -3.55271e-015 -1.42109e-014 -42.1866 -1.78709 4.63082 2.9377 -1.42109e-014 0 -5.61439 -0.033038 0.6739 8.0778 -0.4887 -3.8061 -47.4804 -2.21866 9.20055 3.6 7.10543e-015 -1.42109e-014 -30.9592 1.11981 0.00778601 2.1142 -7.10543e-015 1.42109e-014 -9.55738 -0.0956327 1.14376 -4.57 10.9462 -2.628 -2.10198 -0.0681575 -4.53865 -10.5928 -0.5248 -2.2321 28.9395 37.1374 32.2243 -27.8415 0 0 1.78465e-005 -8.50134e-006 123.859 -28.3288 -7.10543e-015 0.0001 -11.8295 21.5607 -29.4526 -8.0767 -0.4885 -3.806 9.55764 -0.0730672 -5.98901 -3.6 -1.42109e-014 0.0001 36.9255 -1.39599 -4.1811 -2.1142 -7.10543e-015 -1.42109e-014 -1.13095e-006 5.51804e-006 -9.58643e-006 -9.1036 -0.0439 -1.8651 25.0355 -0.573065 -11.8926 -3.154 0 0 34.8718 -1.25039 -3.97992 -2.9377 0 -1.42109e-014 10.0903 0.00113112 -1.21843 -9.5325 0 0 30.4558 -0.945049 -7.60407 -3.6982 -1.42109e-014 0 41.0248 -1.71068 -4.57032 -2.9509 0 1.42109e-014 0.389558 0.00774275 -0.0493137 -9.1083 -0.5168 2.2601 51.2166 -2.59858 -3.09567 -3.6764 0 0 35.2477 -1.27669 -4.01735 -2.8831 0 -1.42109e-014 -3.66447e-006 2.89825e-007 -2.02632e-006 -2.4648 -1.5727 2.6826 9.73059 -4.55162 -14.4643 -3.2298 -1.8647 1.8647 0.472454 8.14401 -18.2419 -2.6526 -1.5314 1.5314 -2.09981 -0.921768 -0.793651 8.2078 -6.7517 -1.5996 23.2913 -17.8669 18.7589 3.55271e-015 -44.3705 0.2846 9.63813 26.8446 -3.70596 3.55271e-015 -44.4279 -2.9822 -19.8462 -9.35776 -1.01721 -3.55271e-015 -8.7287 10.7106 -8.16834e-006 -6.31635 -3.51369e-006 -8.2078 -6.7517 -1.5996 -10.2289 -9.06128 -12.284 1.77636e-015 -44.3705 0.2862 -2.87809 57.0902 -0.288055 1.77636e-015 -44.4277 -2.9838 8.05891 -29.5589 2.05486 0 -8.7287 10.7106 -4.94823e-007 -1.52373 -4.08147e-005 
-0.493405 92.47 3.7067 -7.11466 -14.0618 -27.478 0 10.1816 0.1315 8.58081 14.039 -3.44889 3.55271e-015 10.0835 -1.0008 4.65529 8.26583 -1.60189 0 9.1 -1.3734 4.6261 8.29825 -1.48318 0 16.6717 -2.5162 -2.24436 6.80063 4.53857 -7.10543e-015 9.6179 1.685 1.27392 -27.7176 22.6005 0 17.8152 2.585 -9.93923e-016 0 -3.97569e-016 3.0676 6.4095 9.2836 -9.93923e-016 0 -3.97569e-016 -3.0676 6.4095 9.2835 -9.93923e-016 0 -3.97569e-016 4.5704 10.946 -2.628 -5.30393 5.17083 -24.6584 10.5924 -0.5246 -2.2321 -68.2943 -60.5038 2.30201 27.8415 -0.0001 0 -0.00024342 4.633e-006 -107.676 28.3288 0 0 -4.47276 -76.1893 -4.99041 2.4661 -1.575 2.6824 -11.7377 -5.18612 0.0907663 3.2298 -1.8647 1.8647 0.739146 4.04324 7.8974 2.6526 -1.5315 1.5315 -0.502746 4.93577 16.4153 9.1093 -0.5171 2.2601 -44.5683 -1.94773 10.7958 3.6764 -3.55271e-015 -1.42109e-014 -52.8225 -2.73155 5.49675 2.8831 0 1.42109e-014 -8.40668 -0.0740145 1.00709 9.5334 7.10543e-015 1.42109e-014 -59.46 -3.39543 6.682 3.6982 7.10543e-015 0 -45.8223 -2.09158 4.94626 2.9509 1.42109e-014 0 -6.35643 -0.0423575 0.762637 9.1045 -0.0439 -1.8651 -46.6156 -2.15341 7.65546 3.154 -3.55271e-015 0 -41.7441 -1.75143 4.59114 2.9377 0 2.84217e-014 -5.49104 -0.0316206 0.659159 8.0778 -0.4887 -3.8061 -46.4166 -2.12491 9.1129 3.6 0 -1.42109e-014 -30.895 1.11981 -0.00118395 2.1142 -7.10543e-015 0 -9.57702 -0.0959953 1.14609 -4.57 10.9462 -2.628 -2.03764 -0.0684061 -4.53376 -10.5928 -0.5248 -2.2321 27.9156 37.1849 32.8282 -27.8415 7.10543e-015 1.42109e-014 1.52588e-005 1.02235e-011 123.907 -28.3288 0 0.0001 -11.4201 20.7013 -30.0745 -8.0767 -0.4885 -3.806 8.05286 -0.0406275 -6.15051 -3.6 0 0.0001 36.4685 -1.36274 -4.1365 -2.1142 0 1.42109e-014 -1.13095e-006 5.51804e-006 -9.58643e-006 -9.1036 -0.0439 -1.8651 22.1948 -0.419134 -12.2462 -3.154 0 0 32.859 -1.11398 -3.77658 -2.9377 7.10543e-015 -1.42109e-014 9.60779 0.0737641 -1.16055 -9.5325 0 0 26.8977 -0.732131 -7.61976 -3.6982 0 -1.42109e-014 38.6211 -1.52333 -4.34554 -2.9509 -7.10543e-015 1.42109e-014 0.395795 0.0408721 -0.0500582 -9.1083 -0.5168 2.2601 48.1331 -2.31279 -2.97579 -3.6764 0 1.42109e-014 34.2879 -1.2101 -3.92142 -2.8831 -3.55271e-015 0 8.85153e-006 -1.02178e-005 4.17214e-006 -2.4648 -1.5727 2.6826 9.48615 -4.76538 -14.1585 -3.2298 -1.8647 1.8647 0.406308 7.83105 -17.3909 -2.6526 -1.5314 1.5314 -2.10517 -0.551149 -1.71097 8.2078 -6.7517 -1.5996 22.6971 -17.229 18.4494 0 -44.3705 0.2846 9.50534 25.8483 -2.37425 0 -44.4279 -2.9822 -19.7545 -9.87146 -1.11535 0 -8.7287 10.7106 -1.51135e-006 -6.10503 -3.9872e-006 -8.2078 -6.7517 -1.5996 -10.3482 -8.82682 -11.9978 -3.55271e-015 -44.3705 0.2862 -3.12816 54.9683 0.51967 -1.77636e-015 -44.4277 -2.9838 8.25821 -28.4418 1.97575 -1.77636e-015 -8.7287 10.7106 1.55049e-006 -1.42467 9.65781e-006 
0.117887 93.2416 4.46772 -6.84332 -13.261 -28.4782 -4.44089e-016 10.1816 0.1315 8.51284 13.4584 -3.34224 -3.55271e-015 10.0835 -1.0008 4.64294 7.95923 -1.55738 7.10543e-015 9.1 -1.3734 4.61715 7.99 -1.44211 0 16.6717 -2.5162 -1.81786 6.89593 4.58961 0 9.6179 1.685 2.54435 -27.0927 23.226 3.55271e-015 17.8152 2.585 -1.98785e-016 -1.59028e-015 7.95139e-016 3.0676 6.4095 9.2836 -1.98785e-016 -1.59028e-015 7.95139e-016 -3.0676 6.4095 9.2835 -1.98785e-016 -1.59028e-015 7.95139e-016 4.5704 10.946 -2.628 -5.11119 5.03313 -24.6803 10.5924 -0.5246 -2.2321 -65.705 -61.1775 5.06296 27.8415 -0.0001 3.55271e-015 -0.000198364 -6.42342e-012 -107.106 28.3288 0 0 -12.73 -74.4075 -10.8735 2.4661 -1.575 2.6824 -12.4079 -5.31384 0.0175373 3.2298 -1.8647 1.8647 0.739149 4.04323 7.89743 2.6526 -1.5315 1.5315 -0.351123 4.73144 15.813 9.1093 -0.5171 2.2601 -45.7339 -2.05017 10.7162 3.6764 3.55271e-015 1.42109e-014 -54.9819 -2.94201 5.65043 2.8831 0 2.84217e-014 -8.52843 -0.076204 1.02158 9.5334 -1.42109e-014 -1.42109e-014 -60.3904 -3.49285 6.69214 3.6982 7.10543e-015 1.42109e-014 -46.0092 -2.10777 4.96195 2.9509 0 0 -6.44864 -0.0435975 0.773664 9.1045 -0.0439 -1.8651 -46.9255 -2.18132 7.5847 3.154 0 1.42109e-014 -42.0306 -1.77448 4.61687 2.9377 0 -2.84217e-014 -5.58628 -0.0327168 0.670562 8.0778 -0.4887 -3.8061 -46.2437 -2.10984 9.09847 3.6 0 -1.42109e-014 -30.9441 1.11982 0.00568383 2.1142 0 1.42109e-014 -9.69627 -0.0984163 1.16024 -4.57 10.9462 -2.628 -2.0297 -0.0705559 -4.56518 -10.5928 -0.5248 -2.2321 26.9237 37.215 33.5477 -27.8415 7.10543e-015 0 2.04593e-005 -1.70402e-005 123.943 -28.3288 7.10543e-015 0.0001 -9.72876 19.2459 -31.4692 -8.0767 -0.4885 -3.806 8.46656 -0.0523578 -5.79198 -3.6 0 0.0001 36.4948 -1.36465 -4.13908 -2.1142 0 -2.84217e-014 -1.13095e-006 5.51804e-006 -9.58643e-006 -9.1036 -0.0439 -1.8651 22.8128 -0.458018 -11.837 -3.154 0 -1.42109e-014 32.7249 -1.10516 -3.76286 -2.9377 0 -1.42109e-014 9.28741 0.0387483 -1.12227 -9.5325 0 1.42109e-014 27.5518 -0.770547 -7.50158 -3.6982 0 -1.42109e-014 38.0121 -1.47735 -4.28734 -2.9509 0 -1.42109e-014 0.40198 0.0241089 -0.0507992 -9.1083 -0.5168 2.2601 48.4922 -2.34585 -3.22452 -3.6764 0 -1.42109e-014 33.9321 -1.18583 -3.88558 -2.8831 -3.55271e-015 -1.42109e-014 -1.66451e-006 -1.13631e-006 2.68257e-006 -2.4648 -1.5727 2.6826 9.5252 -4.75252 -14.1804 -3.2298 -1.8647 1.8647 0.389875 7.7518 -17.1752 -2.6526 -1.5314 1.5314 -2.10633 -0.430096 -2.00977 8.2078 -6.7517 -1.5996 21.9975 -16.6844 18.082 0 -44.3705 0.2846 9.31648 24.9797 -0.957628 0 -44.4279 -2.9822 -19.6174 -10.4661 -1.22452 0 -8.7287 10.7106 9.67483e-006 -5.84339 9.69598e-007 -8.2078 -6.7517 -1.5996 -10.5331 -8.69889 -11.6127 -3.55271e-015 -44.3705 0.2862 -3.58363 52.7297 1.54678 0 -44.4277 -2.9838 8.60857 -27.2491 1.92403 0 -8.7287 10.7106 3.37515e-006 -1.26741 1.94628e-005 
0.765244 93.9355 5.27194 -6.59156 -12.5489 -29.5073 4.44089e-016 10.1816 0.1315 8.38543 13.0577 -3.20858 3.55271e-015 10.0835 -1.0008 4.59948 7.7341 -1.50126 0 9.1 -1.3734 4.5763 7.7624 -1.39289 7.10543e-015 16.6717 -2.5162 -1.36045 7.00286 4.60219 0 9.6179 1.685 3.5481 -26.4624 23.7009 -7.10543e-015 17.8152 2.585 8.94531e-015 0 2.38542e-015 3.0676 6.4095 9.2836 8.94531e-015 0 2.38542e-015 -3.0676 6.4095 9.2835 8.94531e-015 0 2.38542e-015 4.5704 10.946 -2.628 -4.97885 4.9455 -24.7269 10.5924 -0.5246 -2.2321 -63.8574 -61.9799 6.71136 27.8415 -0.0001 0 -0.000211732 1.30215e-005 -106.527 28.3288 -1.42109e-014 0 -18.4536 -72.5 -14.2305 2.4661 -1.575 2.6824 -13.1844 -5.84524 -0.581206 3.2298 -1.8647 1.8647 0.739157 4.04325 7.8974 2.6526 -1.5315 1.5315 -0.385482 4.78373 15.9577 9.1093 -0.5171 2.2601 -48.2486 -2.27925 10.2225 3.6764 7.10543e-015 -1.42109e-014 -60.3534 -3.48947 5.99746 2.8831 -1.42109e-014 -1.42109e-014 -7.23215 -0.0548043 0.867187 9.5334 0 -1.42109e-014 -62.4052 -3.70651 6.59158 3.6982 0 1.42109e-014 -47.4369 -2.2331 5.08008 2.9509 0 1.42109e-014 -7.16897 -0.0538477 0.859651 9.1045 -0.0439 -1.8651 -47.977 -2.27641 7.32152 3.154 0 0 -42.7616 -1.8339 4.68198 2.9377 0 1.42109e-014 -5.68759 -0.0339103 0.682686 8.0778 -0.4887 -3.8061 -47.2437 -2.19765 9.18119 3.6 3.55271e-015 0 -31.0491 1.11977 0.0203474 2.1142 0 1.42109e-014 -9.71448 -0.0987903 1.1624 -4.57 10.9462 -2.628 -2.09039 -0.0740593 -4.62737 -10.5928 -0.5248 -2.2321 26.371 37.2699 34.1236 -27.8415 0 0 1.78488e-005 -8.5049e-006 123.875 -28.3288 7.10543e-015 0.0001 -6.73056 16.8311 -33.3809 -8.0767 -0.4885 -3.806 10.0528 -0.088972 -5.42588 -3.6 1.42109e-014 0.0001 36.6485 -1.3758 -4.15412 -2.1142 0 0 -1.13095e-006 5.51804e-006 -9.58643e-006 -9.1036 -0.0439 -1.8651 25.9932 -0.638959 -11.1415 -3.154 0 0 35.3396 -1.28316 -4.02648 -2.9377 0 0 9.23108 -0.0573954 -1.11579 -9.5325 0 0 30.665 -0.957278 -7.54064 -3.6982 0 1.42109e-014 38.7897 -1.53616 -4.36155 -2.9509 -7.10543e-015 0 0.408145 -0.00257426 -0.0515744 -9.1083 -0.5168 2.2601 52.3403 -2.70783 -3.8753 -3.6764 0 0 34.2346 -1.20647 -3.91605 -2.8831 -1.77636e-015 1.42109e-014 5.46785e-006 9.79129e-007 1.91235e-006 -2.4648 -1.5727 2.6826 10.1913 -4.53895 -14.5482 -3.2298 -1.8647 1.8647 0.41834 7.88739 -17.5446 -2.6526 -1.5314 1.5314 -2.10501 -0.53562 -1.74975 8.2078 -6.7517 -1.5996 21.309 -16.1969 17.7036 0 -44.3705 0.2846 9.14101 24.3093 0.426827 0 -44.4279 -2.9822 -19.4176 -10.7953 -1.27694 3.55271e-015 -8.7287 10.7106 -1.58405e-006 -5.70041 -2.60308e-006 -8.2078 -6.7517 -1.5996 -10.8165 -8.5136 -11.3249 -1.77636e-015 -44.3705 0.2862 -4.04563 50.5644 2.71088 3.55271e-015 -44.4277 -2.9838 8.98006 -26.1152 1.88183 1.77636e-015 -8.7287 10.7106 4.01836e-006 -1.07513 3.16101e-005 
